<svg xmlns="http://www.w3.org/2000/svg" width="16.047" height="16.059" viewBox="0 0 16.047 16.059">
  <g id="calendar" transform="translate(0)">
    <g id="Group_95" data-name="Group 95">
      <g id="Group_94" data-name="Group 94">
        <path id="Path_26" data-name="Path 26" d="M14.05,7.112V2.58a1.4,1.4,0,0,0-1.475-1.333H11.384V.288A.249.249,0,0,0,11.1,0H9.412c-.2,0-.338.089-.338.284v.96H5.165V.288c0-.2-.231-.284-.426-.284H3.05c-.2,0-.373.089-.373.284v.96H1.593A1.337,1.337,0,0,0,.189,2.58V12.887a1.337,1.337,0,0,0,1.4,1.333H7.528A4.887,4.887,0,0,0,16.236,11.2,5.082,5.082,0,0,0,14.05,7.112ZM9.785.714h.889v1.6H9.785Zm-6.4,0H4.454v1.6H3.388ZM.9,2.58a.627.627,0,0,1,.693-.622H2.677v.675a.409.409,0,0,0,.373.391H4.738a.462.462,0,0,0,.426-.391V1.958H9.074v.675a.373.373,0,0,0,.338.391H11.1c.2,0,.284-.2.284-.391V1.958h1.191a.691.691,0,0,1,.764.622V4.8H.9Zm.693,10.929A.627.627,0,0,1,.9,12.887V5.512H13.339V6.738a5.331,5.331,0,0,0-1.973-.426,4.887,4.887,0,0,0-4.3,7.2H1.593Zm9.738,1.848a4.176,4.176,0,1,1,4.158-4.194c0,.012,0,.024,0,.035A4.158,4.158,0,0,1,11.331,15.357Z" transform="translate(-0.189 0)"/>
        <path id="Path_27" data-name="Path 27" d="M310.761,258.576h-1.617v-2.132a.355.355,0,0,0-.711,0v2.488a.427.427,0,0,0,.427.355h1.9a.355.355,0,1,0,0-.711Z" transform="translate(-297.949 -247.378)"/>
      </g>
    </g>
  </g>
</svg>
