<svg id="Group_96" data-name="Group 96" xmlns="http://www.w3.org/2000/svg" width="13.859" height="13.859" viewBox="0 0 13.859 13.859">
  <path id="Path_22" data-name="Path 22" d="M7.68,14.609a6.93,6.93,0,1,1,6.93-6.93A6.938,6.938,0,0,1,7.68,14.609Zm0-12.935A6.006,6.006,0,1,0,13.685,7.68,6.013,6.013,0,0,0,7.68,1.674Z" transform="translate(-0.75 -0.75)"/>
  <path id="Path_23" data-name="Path 23" d="M13.446,11.892a.457.457,0,0,1-.326-.136L11.734,10.37A1.385,1.385,0,0,1,9.751,9.12a1.391,1.391,0,0,1,.924-1.306V4.962a.462.462,0,1,1,.924,0V7.813a1.392,1.392,0,0,1,.924,1.306,1.372,1.372,0,0,1-.136.6L13.773,11.1a.462.462,0,0,1-.327.789Zm-2.31-3.234a.462.462,0,1,0,.462.462A.462.462,0,0,0,11.136,8.658Z" transform="translate(-4.207 -2.19)"/>
</svg>
