<svg id="Group_233" data-name="Group 233" xmlns="http://www.w3.org/2000/svg" width="75.941" height="12.353" viewBox="0 0 75.941 12.353">
  <g id="star">
    <path id="Path_24" data-name="Path 24" d="M23.427,15.625a.654.654,0,0,0-.564-.451L19.3,14.851,17.9,11.557a.656.656,0,0,0-1.205,0l-1.407,3.293-3.559.323a.656.656,0,0,0-.372,1.146l2.69,2.359-.793,3.494a.656.656,0,0,0,.255.677.65.65,0,0,0,.72.032l3.069-1.835,3.068,1.835a.655.655,0,0,0,.975-.708l-.793-3.494,2.69-2.359a.656.656,0,0,0,.192-.7Zm0,0" transform="translate(-10.849 -10.892)" fill="#f90"/>
    <path id="Path_25" data-name="Path 25" d="M2.886,12.845a.686.686,0,0,1-.668-.838l.829-3.652L.235,5.889a.686.686,0,0,1,.388-1.2l3.722-.338L5.815.909a.685.685,0,0,1,1.26,0L8.546,4.352l3.721.338a.686.686,0,0,1,.389,1.2L9.844,8.354l.829,3.652a.685.685,0,0,1-1.019.741L6.445,10.83,3.237,12.748a.68.68,0,0,1-.351.1ZM6.445,10a.687.687,0,0,1,.351.1l3.028,1.811L9.042,8.464A.685.685,0,0,1,9.259,7.8l2.655-2.329L8.4,5.148a.682.682,0,0,1-.569-.415L6.445,1.485,5.057,4.734a.682.682,0,0,1-.569.414L.975,5.467,3.631,7.8a.684.684,0,0,1,.217.668l-.783,3.448L6.093,10.1a.69.69,0,0,1,.352-.1ZM4.316,4.419h0Zm4.259,0h0Zm0,0" transform="translate(0 -0.493)" fill="#f90"/>
  </g>
  <g id="star-2" data-name="star" transform="translate(15.763)">
    <path id="Path_24-2" data-name="Path 24" d="M23.427,15.625a.654.654,0,0,0-.564-.451L19.3,14.851,17.9,11.557a.656.656,0,0,0-1.205,0l-1.407,3.293-3.559.323a.656.656,0,0,0-.372,1.146l2.69,2.359-.793,3.494a.656.656,0,0,0,.255.677.65.65,0,0,0,.72.032l3.069-1.835,3.068,1.835a.655.655,0,0,0,.975-.708l-.793-3.494,2.69-2.359a.656.656,0,0,0,.192-.7Zm0,0" transform="translate(-10.849 -10.892)" fill="#f90"/>
    <path id="Path_25-2" data-name="Path 25" d="M2.886,12.845a.686.686,0,0,1-.668-.838l.829-3.652L.235,5.889a.686.686,0,0,1,.388-1.2l3.722-.338L5.815.909a.685.685,0,0,1,1.26,0L8.546,4.352l3.721.338a.686.686,0,0,1,.389,1.2L9.844,8.354l.829,3.652a.685.685,0,0,1-1.019.741L6.445,10.83,3.237,12.748a.68.68,0,0,1-.351.1ZM6.445,10a.687.687,0,0,1,.351.1l3.028,1.811L9.042,8.464A.685.685,0,0,1,9.259,7.8l2.655-2.329L8.4,5.148a.682.682,0,0,1-.569-.415L6.445,1.485,5.057,4.734a.682.682,0,0,1-.569.414L.975,5.467,3.631,7.8a.684.684,0,0,1,.217.668l-.783,3.448L6.093,10.1a.69.69,0,0,1,.352-.1ZM4.316,4.419h0Zm4.259,0h0Zm0,0" transform="translate(0 -0.493)" fill="#f90"/>
  </g>
  <g id="star-3" data-name="star" transform="translate(31.525)">
    <path id="Path_24-3" data-name="Path 24" d="M23.427,15.625a.654.654,0,0,0-.564-.451L19.3,14.851,17.9,11.557a.656.656,0,0,0-1.205,0l-1.407,3.293-3.559.323a.656.656,0,0,0-.372,1.146l2.69,2.359-.793,3.494a.656.656,0,0,0,.255.677.65.65,0,0,0,.72.032l3.069-1.835,3.068,1.835a.655.655,0,0,0,.975-.708l-.793-3.494,2.69-2.359a.656.656,0,0,0,.192-.7Zm0,0" transform="translate(-10.849 -10.892)" fill="#f90"/>
    <path id="Path_25-3" data-name="Path 25" d="M2.886,12.845a.686.686,0,0,1-.668-.838l.829-3.652L.235,5.889a.686.686,0,0,1,.388-1.2l3.722-.338L5.815.909a.685.685,0,0,1,1.26,0L8.546,4.352l3.721.338a.686.686,0,0,1,.389,1.2L9.844,8.354l.829,3.652a.685.685,0,0,1-1.019.741L6.445,10.83,3.237,12.748a.68.68,0,0,1-.351.1ZM6.445,10a.687.687,0,0,1,.351.1l3.028,1.811L9.042,8.464A.685.685,0,0,1,9.259,7.8l2.655-2.329L8.4,5.148a.682.682,0,0,1-.569-.415L6.445,1.485,5.057,4.734a.682.682,0,0,1-.569.414L.975,5.467,3.631,7.8a.684.684,0,0,1,.217.668l-.783,3.448L6.093,10.1a.69.69,0,0,1,.352-.1ZM4.316,4.419h0Zm4.259,0h0Zm0,0" transform="translate(0 -0.493)" fill="#f90"/>
  </g>
  <g id="star-4" data-name="star" transform="translate(47.288)">
    <path id="Path_24-4" data-name="Path 24" d="M23.427,15.625a.654.654,0,0,0-.564-.451L19.3,14.851,17.9,11.557a.656.656,0,0,0-1.205,0l-1.407,3.293-3.559.323a.656.656,0,0,0-.372,1.146l2.69,2.359-.793,3.494a.656.656,0,0,0,.255.677.65.65,0,0,0,.72.032l3.069-1.835,3.068,1.835a.655.655,0,0,0,.975-.708l-.793-3.494,2.69-2.359a.656.656,0,0,0,.192-.7Zm0,0" transform="translate(-10.849 -10.892)" fill="#f90"/>
    <path id="Path_25-4" data-name="Path 25" d="M2.886,12.845a.686.686,0,0,1-.668-.838l.829-3.652L.235,5.889a.686.686,0,0,1,.388-1.2l3.722-.338L5.815.909a.685.685,0,0,1,1.26,0L8.546,4.352l3.721.338a.686.686,0,0,1,.389,1.2L9.844,8.354l.829,3.652a.685.685,0,0,1-1.019.741L6.445,10.83,3.237,12.748a.68.68,0,0,1-.351.1ZM6.445,10a.687.687,0,0,1,.351.1l3.028,1.811L9.042,8.464A.685.685,0,0,1,9.259,7.8l2.655-2.329L8.4,5.148a.682.682,0,0,1-.569-.415L6.445,1.485,5.057,4.734a.682.682,0,0,1-.569.414L.975,5.467,3.631,7.8a.684.684,0,0,1,.217.668l-.783,3.448L6.093,10.1a.69.69,0,0,1,.352-.1ZM4.316,4.419h0Zm4.259,0h0Zm0,0" transform="translate(0 -0.493)" fill="#f90"/>
  </g>
  <g id="star-5" data-name="star" transform="translate(63.051)">
    <path id="Path_24-5" data-name="Path 24" d="M23.427,15.625a.654.654,0,0,0-.564-.451L19.3,14.851,17.9,11.557a.656.656,0,0,0-1.205,0l-1.407,3.293-3.559.323a.656.656,0,0,0-.372,1.146l2.69,2.359-.793,3.494a.656.656,0,0,0,.255.677.65.65,0,0,0,.72.032l3.069-1.835,3.068,1.835a.655.655,0,0,0,.975-.708l-.793-3.494,2.69-2.359a.656.656,0,0,0,.192-.7Zm0,0" transform="translate(-10.849 -10.892)" fill="#f90"/>
    <path id="Path_25-5" data-name="Path 25" d="M2.886,12.845a.686.686,0,0,1-.668-.838l.829-3.652L.235,5.889a.686.686,0,0,1,.388-1.2l3.722-.338L5.815.909a.685.685,0,0,1,1.26,0L8.546,4.352l3.721.338a.686.686,0,0,1,.389,1.2L9.844,8.354l.829,3.652a.685.685,0,0,1-1.019.741L6.445,10.83,3.237,12.748a.68.68,0,0,1-.351.1ZM6.445,10a.687.687,0,0,1,.351.1l3.028,1.811L9.042,8.464A.685.685,0,0,1,9.259,7.8l2.655-2.329L8.4,5.148a.682.682,0,0,1-.569-.415L6.445,1.485,5.057,4.734a.682.682,0,0,1-.569.414L.975,5.467,3.631,7.8a.684.684,0,0,1,.217.668l-.783,3.448L6.093,10.1a.69.69,0,0,1,.352-.1ZM4.316,4.419h0Zm4.259,0h0Zm0,0" transform="translate(0 -0.493)" fill="#f90"/>
  </g>
</svg>
