<svg id="hypoallergenic" xmlns="http://www.w3.org/2000/svg" width="20.328" height="20.328" viewBox="0 0 20.328 20.328">
  <g id="Group_134" data-name="Group 134">
    <path id="Path_76" data-name="Path 76" d="M20.328,10.163A10.164,10.164,0,1,1,10.163,0,10.176,10.176,0,0,1,20.328,10.163Z" fill="#099097"/>
  </g>
  <g id="Group_135" data-name="Group 135" transform="translate(4.287 5.965)">
    <path id="Path_77" data-name="Path 77" d="M53.05,75.906a1.332,1.332,0,0,1-.942-.39l-3.453-3.453a1.332,1.332,0,1,1,1.884-1.884l2.511,2.511,5.144-5.144a1.332,1.332,0,0,1,1.884,1.884l-6.087,6.087A1.332,1.332,0,0,1,53.05,75.906Z" transform="translate(-48.265 -67.155)" fill="#fff5f5"/>
  </g>
</svg>
