<svg xmlns="http://www.w3.org/2000/svg" width="17.234" height="17.248" viewBox="0 0 17.234 17.248">
  <g id="calendar" transform="translate(-0.189 0)">
    <g id="Group_95" data-name="Group 95" transform="translate(0.189 0)">
      <g id="Group_94" data-name="Group 94" transform="translate(0 0)">
        <path id="Path_26" data-name="Path 26" d="M15.075,7.638V2.771A1.5,1.5,0,0,0,13.491,1.34H12.213V.309A.267.267,0,0,0,11.907,0H10.094c-.21,0-.363.1-.363.305V1.34h-4.2V.309C5.533.1,5.285,0,5.075,0H3.262c-.21,0-.4.1-.4.305V1.34H1.7A1.436,1.436,0,0,0,.189,2.771V13.84A1.436,1.436,0,0,0,1.7,15.272H8.071a5.248,5.248,0,0,0,9.352-3.244A5.458,5.458,0,0,0,15.075,7.638ZM10.495.767h.954V2.485h-.954Zm-6.871,0H4.769V2.485H3.624Zm-2.672,2A.673.673,0,0,1,1.7,2.1H2.861v.725a.439.439,0,0,0,.4.42H5.075a.5.5,0,0,0,.458-.42V2.1h4.2v.725a.4.4,0,0,0,.363.42h1.813c.21,0,.305-.21.305-.42V2.1h1.279a.742.742,0,0,1,.821.668V5.157H.952ZM1.7,14.508a.673.673,0,0,1-.744-.668V5.92h13.36V7.237a5.726,5.726,0,0,0-2.118-.458,5.248,5.248,0,0,0-4.619,7.729H1.7Zm10.459,1.985a4.485,4.485,0,1,1,4.466-4.5c0,.013,0,.025,0,.038A4.466,4.466,0,0,1,12.155,16.493Z" transform="translate(-0.189 0)" fill="#e6e6e6"/>
        <path id="Path_27" data-name="Path 27" d="M310.933,258.76H309.2v-2.29a.382.382,0,0,0-.763,0v2.672a.458.458,0,0,0,.458.382h2.042a.382.382,0,0,0,0-.763Z" transform="translate(-297.173 -246.733)" fill="#e6e6e6"/>
      </g>
    </g>
  </g>
</svg>
