<svg xmlns="http://www.w3.org/2000/svg" width="27" height="27" viewBox="0 0 27 27">
  <path id="messenger" d="M13.5,0A13.5,13.5,0,0,0,1.79,20.22l-1.739,5.4a1.055,1.055,0,0,0,1.327,1.327l5.4-1.739A13.5,13.5,0,1,0,13.5,0Zm0,24.891a11.357,11.357,0,0,1-6.029-1.726,1.055,1.055,0,0,0-.882-.11l-3.9,1.256,1.256-3.9a1.055,1.055,0,0,0-.11-.882A11.391,11.391,0,1,1,13.5,24.891ZM14.818,13.5A1.318,1.318,0,1,1,13.5,12.182,1.318,1.318,0,0,1,14.818,13.5Zm5.273,0a1.318,1.318,0,1,1-1.318-1.318A1.318,1.318,0,0,1,20.092,13.5Zm-10.547,0a1.318,1.318,0,1,1-1.318-1.318A1.318,1.318,0,0,1,9.545,13.5Zm0,0"/>
</svg>
