<svg xmlns="http://www.w3.org/2000/svg" width="17.779" height="17.779" viewBox="0 0 17.779 17.779">
  <g id="Group_96" data-name="Group 96" transform="translate(-0.75 -0.75)">
    <path id="Path_22" data-name="Path 22" d="M9.64,18.529a8.89,8.89,0,1,1,8.89-8.89A8.9,8.9,0,0,1,9.64,18.529Zm0-16.594a7.7,7.7,0,1,0,7.7,7.7A7.713,7.713,0,0,0,9.64,1.935Z" fill="#eee"/>
    <path id="Path_23" data-name="Path 23" d="M14.491,13.982a.587.587,0,0,1-.419-.174L12.295,12.03a1.777,1.777,0,0,1-2.544-1.6A1.784,1.784,0,0,1,10.936,8.75V5.093a.593.593,0,1,1,1.185,0V8.75a1.786,1.786,0,0,1,1.185,1.676,1.761,1.761,0,0,1-.174.766l1.778,1.778a.593.593,0,0,1-.42,1.012ZM11.528,9.834a.593.593,0,1,0,.593.593A.593.593,0,0,0,11.528,9.834Z" transform="translate(-1.889 -0.787)" fill="#eee"/>
  </g>
</svg>
