<svg xmlns="http://www.w3.org/2000/svg" width="70.003" height="16.282" viewBox="0 0 70.003 16.282">
  <g id="Layer_2" data-name="Layer 2" transform="translate(0 -0.54)">
    <g id="Layer_1-2" data-name="Layer 1-2">
      <path id="Path_49" data-name="Path 49" d="M18.77,11.8v-.37c0-4.42-2.58-7.13-6.36-7.13A6.18,6.18,0,0,0,8,6.15,6,6,0,0,0,6.23,10.5,6.26,6.26,0,0,0,8,14.9a5.85,5.85,0,0,0,4.48,1.89,6,6,0,0,0,5.78-3.73H14.38a2.57,2.57,0,0,1-1.83.66A2.48,2.48,0,0,1,9.81,11.8ZM15.26,9.34H9.72a2.56,2.56,0,0,1,2.73-1.87,2.75,2.75,0,0,1,2.81,1.87" fill="#494545"/>
      <path id="Path_50" data-name="Path 50" d="M32,11.8v-.37C32,7,29.39,4.3,25.61,4.3a6.2,6.2,0,0,0-4.37,1.85,6.11,6.11,0,0,0-1.83,4.35,6.27,6.27,0,0,0,1.75,4.4,5.88,5.88,0,0,0,4.5,1.9,6,6,0,0,0,5.78-3.74H27.58a2.57,2.57,0,0,1-1.83.66A2.48,2.48,0,0,1,23,11.8ZM28.46,9.34H22.92a2.56,2.56,0,0,1,2.74-1.87,2.73,2.73,0,0,1,2.8,1.87" fill="#494545"/>
      <path id="Path_51" data-name="Path 51" d="M1.28,7.3v9.21H4.71V7.3H6.09V4.65H4.71V4.36C4.71,3.28,5,2.93,6,2.93h.08V.54H5.54C2.63.52,1.26,1.67,1.26,4.21v.44H0V7.3Z" fill="#494545"/>
      <path id="Path_52" data-name="Path 52" d="M33.3,7.3v9.21h3.42V7.3h1.39V4.65H36.72V4.36c0-1.08.24-1.43,1.3-1.43h.09V.54h-.55c-2.92,0-4.29,1.15-4.29,3.69v.44H32V7.3Z" fill="#494545"/>
      <path id="Path_53" data-name="Path 53" d="M50.63,10.5A6.26,6.26,0,0,0,39.92,6.2a6.05,6.05,0,0,0-1.81,4.36,6.16,6.16,0,0,0,1.74,4.36,5.88,5.88,0,0,0,4.49,1.9A6.11,6.11,0,0,0,48.84,15a6,6,0,0,0,1.79-4.46m-3.47.09a2.81,2.81,0,0,1-5.61.19v-.19a2.81,2.81,0,1,1,5.61-.32v.32" fill="#494545"/>
      <path id="Path_54" data-name="Path 54" d="M56,8.58a3.36,3.36,0,0,1-3.13-3.14H60.2V5.36c0-2.88-1.84-4.81-4.39-4.81a4.38,4.38,0,0,0-4.52,4.53,4.51,4.51,0,0,0,4.43,4.57h.05a4.38,4.38,0,0,0,4.16-3h-.74a3.34,3.34,0,0,1-3,1.91H56" fill="#fddc47"/>
      <path id="Path_55" data-name="Path 55" d="M65.31,8.58a3.34,3.34,0,0,0,3.12-3.14H61.09V5.36c0-2.88,1.84-4.81,4.39-4.81A4.38,4.38,0,0,1,70,5.09a4.49,4.49,0,0,1-4.44,4.56h0a4.39,4.39,0,0,1-4.17-3h.74a3.31,3.31,0,0,0,3,1.89h.2" fill="#fddc47"/>
    </g>
  </g>
</svg>
