<svg xmlns="http://www.w3.org/2000/svg" width="36.925" height="36.925" viewBox="0 0 36.925 36.925">
  <g id="linkedin" transform="translate(0 0.001)">
    <circle id="Ellipse_9" data-name="Ellipse 9" cx="18.463" cy="18.463" r="18.463" transform="translate(0 -0.001)" fill="#007ab9"/>
    <g id="Group_128" data-name="Group 128" transform="translate(8.908 7.888)">
      <path id="Path_61" data-name="Path 61" d="M47.653,36.028V43.64H43.24v-7.1c0-1.783-.637-3-2.235-3a2.414,2.414,0,0,0-2.264,1.614,3.02,3.02,0,0,0-.146,1.076V43.64H34.182s.059-12.028,0-13.273H38.6v1.881c-.009.015-.021.029-.029.043H38.6v-.043a4.382,4.382,0,0,1,3.977-2.193c2.9,0,5.08,1.9,5.08,5.973ZM29.565,23.969a2.3,2.3,0,1,0-.058,4.587h.029a2.3,2.3,0,1,0,.029-4.587ZM27.33,43.64h4.412V30.367H27.33Z" transform="translate(-27.068 -23.969)" fill="#f1f2f2"/>
    </g>
  </g>
</svg>
