<svg xmlns="http://www.w3.org/2000/svg" width="122.157" height="122.157" viewBox="0 0 122.157 122.157">
  <path id="messenger" d="M61.079,0A61.087,61.087,0,0,0,8.1,91.484L.23,115.923a4.772,4.772,0,0,0,6,6l24.439-7.87A61.081,61.081,0,1,0,61.079,0Zm0,112.614A51.385,51.385,0,0,1,33.8,104.806a4.775,4.775,0,0,0-3.993-.5l-17.642,5.681L17.848,92.35a4.775,4.775,0,0,0-.5-3.993,51.538,51.538,0,1,1,43.728,24.257Zm5.965-51.535a5.965,5.965,0,1,1-5.965-5.965A5.965,5.965,0,0,1,67.043,61.079Zm23.859,0a5.965,5.965,0,1,1-5.965-5.965A5.965,5.965,0,0,1,90.9,61.079Zm-47.718,0a5.965,5.965,0,1,1-5.965-5.965A5.965,5.965,0,0,1,43.185,61.079Zm0,0" transform="translate(0)" fill="#fff"/>
</svg>
