<svg xmlns="http://www.w3.org/2000/svg" width="18.324" height="13.743" viewBox="0 0 18.324 13.743">
  <g id="envelope" transform="translate(0 0)">
    <g id="Group_45" data-name="Group 45">
      <g id="Group_44" data-name="Group 44" transform="translate(0 0)">
        <path id="Path_15" data-name="Path 15" d="M7.049,65.115c2.515,2.13,6.928,5.877,8.225,7.045a.766.766,0,0,0,1.108,0c1.3-1.17,5.711-4.917,8.226-7.047a.382.382,0,0,0,.054-.527,1.516,1.516,0,0,0-1.2-.588H8.193a1.516,1.516,0,0,0-1.2.588A.381.381,0,0,0,7.049,65.115Z" transform="translate(-6.666 -64)" fill="#fff"/>
        <path id="Path_16" data-name="Path 16" d="M18.1,126.447a.38.38,0,0,0-.407.055c-2.789,2.364-6.349,5.395-7.469,6.4a1.546,1.546,0,0,1-2.131,0C6.9,131.83,2.905,128.432.629,126.5a.382.382,0,0,0-.629.291v9.6a1.529,1.529,0,0,0,1.527,1.527H16.8a1.529,1.529,0,0,0,1.527-1.527v-9.6A.382.382,0,0,0,18.1,126.447Z" transform="translate(0 -124.178)" fill="#fff"/>
      </g>
    </g>
  </g>
</svg>
