<svg xmlns="http://www.w3.org/2000/svg" width="13.387" height="19.039" viewBox="0 0 13.387 19.039">
  <g id="placeholder" transform="translate(-76)" opacity="0.3">
    <g id="Group_69" data-name="Group 69" transform="translate(76)">
      <g id="Group_68" data-name="Group 68">
        <path id="Path_18" data-name="Path 18" d="M82.693,0A6.695,6.695,0,0,0,77,10.213l5.313,8.562a.558.558,0,0,0,.474.264h0a.558.558,0,0,0,.474-.271l5.178-8.645A6.695,6.695,0,0,0,82.693,0Zm4.792,9.55-4.707,7.86L77.947,9.625a5.581,5.581,0,1,1,9.538-.075Z" transform="translate(-76)"/>
      </g>
    </g>
    <g id="Group_71" data-name="Group 71" transform="translate(79.347 3.347)">
      <g id="Group_70" data-name="Group 70">
        <path id="Path_19" data-name="Path 19" d="M169.347,90a3.347,3.347,0,1,0,3.347,3.347A3.35,3.35,0,0,0,169.347,90Zm0,5.585a2.239,2.239,0,1,1,2.235-2.239A2.24,2.24,0,0,1,169.347,95.585Z" transform="translate(-166 -90)"/>
      </g>
    </g>
  </g>
</svg>
