<svg xmlns="http://www.w3.org/2000/svg" width="31.028" height="18.125" viewBox="0 0 31.028 18.125">
  <g id="Group_101" data-name="Group 101" transform="translate(0 18.125) rotate(-90)">
    <g id="down-arrow" transform="translate(18.125 0) rotate(90)">
      <g id="_x31_0_34_">
        <g id="Group_35" data-name="Group 35">
          <path id="Path_13" data-name="Path 13" d="M30.647.382a1.294,1.294,0,0,0-1.836,0l-13.3,14.59L2.217.382A1.294,1.294,0,0,0,.38.382a1.31,1.31,0,0,0,0,1.845L14.53,17.754a1.28,1.28,0,0,0,.983.37,1.278,1.278,0,0,0,.983-.37L30.648,2.226A1.308,1.308,0,0,0,30.647.382Z" fill="#eee"/>
        </g>
      </g>
    </g>
  </g>
</svg>
