<svg id="download" xmlns="http://www.w3.org/2000/svg" width="92.39" height="92.39" viewBox="0 0 92.39 92.39">
  <path id="Path_28" data-name="Path 28" d="M0,92.39H92.39V0H0Z" fill="#394450" fill-rule="evenodd"/>
  <path id="Path_29" data-name="Path 29" d="M56.515,318.7c-.153-.539-1.008-.488-1.444-.542l-2.758-.345c-.382-.837-.763-1.456-1.145-2.306-.184-.411-.391-1.356-1.005-1.327-.6.029-.807.957-1,1.371-.392.85-.72,1.494-1.108,2.332l-2.64.446c-.419.071-1.294.056-1.389.62-.081.488.656.925.952,1.2L46.8,321.8c-.188.86-.375,1.922-.563,2.762-.086.385-.453,1.218.008,1.529.48.324,1.173-.37,1.533-.583a15.287,15.287,0,0,1,2.531-1.409c.779.407,1.631,1.03,2.4,1.414.351.175,1.136.787,1.56.449.391-.311.016-1.056-.077-1.411-.214-.828-.429-1.873-.643-2.725.66-.617,1.373-1.234,2.027-1.852.3-.282,1.083-.771.939-1.278" transform="translate(-35.548 -253.704)" fill="#fffffe" fill-rule="evenodd"/>
  <path id="Path_30" data-name="Path 30" d="M139.064,318.7c-.153-.539-1.008-.488-1.444-.542l-2.757-.345c-.382-.837-.764-1.456-1.145-2.306-.184-.411-.391-1.356-1.005-1.327-.6.029-.807.957-1,1.371-.392.85-.72,1.494-1.108,2.332l-2.64.446c-.419.071-1.294.056-1.389.62-.081.488.656.925.952,1.2l1.819,1.659c-.188.86-.375,1.922-.563,2.762-.086.385-.453,1.218.008,1.529.48.324,1.173-.37,1.532-.583a15.3,15.3,0,0,1,2.531-1.409c.779.407,1.631,1.03,2.4,1.414.351.175,1.136.787,1.56.449.391-.311.016-1.056-.077-1.411-.214-.828-.429-1.873-.643-2.725.66-.617,1.373-1.234,2.027-1.852.3-.282,1.083-.771.939-1.278" transform="translate(-102.208 -253.704)" fill="#fffffe" fill-rule="evenodd"/>
  <path id="Path_31" data-name="Path 31" d="M221.615,318.7c-.153-.539-1.008-.488-1.444-.542l-2.758-.345c-.382-.837-.764-1.456-1.145-2.306-.184-.411-.391-1.356-1.005-1.327-.6.029-.807.957-1,1.371-.392.85-.72,1.494-1.108,2.332l-2.64.446c-.419.071-1.294.056-1.389.62-.082.488.655.925.952,1.2L211.9,321.8c-.188.86-.375,1.922-.563,2.762-.086.385-.453,1.218.007,1.529.48.324,1.173-.37,1.532-.583a15.3,15.3,0,0,1,2.531-1.409c.779.407,1.631,1.03,2.4,1.414.351.175,1.136.787,1.56.449.391-.311.016-1.056-.077-1.411-.214-.828-.429-1.873-.643-2.725.66-.617,1.373-1.234,2.027-1.852.3-.282,1.083-.771.939-1.278" transform="translate(-168.87 -253.704)" fill="#fffffe" fill-rule="evenodd"/>
  <path id="Path_32" data-name="Path 32" d="M304.165,318.7c-.153-.539-1.008-.488-1.444-.542l-2.758-.345c-.382-.837-.763-1.456-1.145-2.306-.184-.411-.391-1.356-1.005-1.327-.6.029-.807.957-1,1.371-.392.85-.72,1.494-1.108,2.332l-2.64.446c-.419.071-1.294.056-1.389.62-.081.488.656.925.952,1.2l1.819,1.659c-.188.86-.375,1.922-.563,2.762-.086.385-.453,1.218.008,1.529.48.324,1.173-.37,1.532-.583a15.287,15.287,0,0,1,2.531-1.409c.779.407,1.631,1.03,2.4,1.414.351.175,1.136.787,1.56.449.391-.311.016-1.056-.077-1.411-.214-.828-.429-1.873-.643-2.725.66-.617,1.373-1.234,2.027-1.852.3-.282,1.083-.771.939-1.278" transform="translate(-235.531 -253.704)" fill="#fffffe" fill-rule="evenodd"/>
  <path id="Path_33" data-name="Path 33" d="M386.714,318.7c-.153-.539-1.008-.488-1.444-.542l-2.758-.345c-.382-.837-.764-1.456-1.146-2.306-.184-.411-.391-1.356-1.005-1.327-.6.029-.807.957-1,1.371-.392.85-.72,1.494-1.108,2.332l-2.64.446c-.419.071-1.294.056-1.389.62-.081.488.656.925.952,1.2L377,321.8c-.188.86-.375,1.922-.563,2.762-.086.385-.453,1.218.008,1.529.48.324,1.173-.37,1.532-.583a15.3,15.3,0,0,1,2.531-1.409c.779.407,1.631,1.03,2.4,1.414.351.175,1.136.787,1.56.449.391-.311.016-1.056-.077-1.411-.214-.828-.429-1.873-.643-2.725.66-.617,1.373-1.234,2.027-1.852.3-.282,1.083-.771.939-1.278" transform="translate(-302.191 -253.704)" fill="#fffffe" fill-rule="evenodd"/>
  <path id="Path_34" data-name="Path 34" d="M264.179,417.062h-3.239a1.5,1.5,0,0,1,1.6-1.1,1.6,1.6,0,0,1,1.639,1.1m2.052,1.446v-.22c0-2.581-1.51-4.167-3.716-4.167a3.623,3.623,0,0,0-2.555,1.083,3.555,3.555,0,0,0-1.057,2.542,3.654,3.654,0,0,0,1.019,2.568,3.426,3.426,0,0,0,2.62,1.11,3.491,3.491,0,0,0,3.367-2.181h-2.245a1.514,1.514,0,0,1-1.058.387,1.447,1.447,0,0,1-1.6-1.122h5.226" transform="translate(-209.069 -334.411)" fill="#fffffe" fill-rule="evenodd"/>
  <path id="Path_35" data-name="Path 35" d="M304.259,417.062h-3.239a1.5,1.5,0,0,1,1.6-1.1,1.6,1.6,0,0,1,1.639,1.1m2.052,1.446v-.22c0-2.581-1.51-4.167-3.717-4.167a3.622,3.622,0,0,0-2.555,1.083,3.553,3.553,0,0,0-1.058,2.542A3.654,3.654,0,0,0,300,420.314a3.426,3.426,0,0,0,2.62,1.11,3.491,3.491,0,0,0,3.368-2.181h-2.245a1.513,1.513,0,0,1-1.058.387,1.447,1.447,0,0,1-1.6-1.122h5.226" transform="translate(-241.434 -334.411)" fill="#fffffe" fill-rule="evenodd"/>
  <path id="Path_36" data-name="Path 36" d="M240.75,406.613v5.38h2v-5.38h.813v-1.549h-.813V404.9c0-.632.142-.838.761-.838h.051v-1.394c-.116,0-.219-.012-.322-.012-1.7,0-2.5.671-2.5,2.154,0,.077.013.168.013.258H240v1.549h.748" transform="translate(-193.806 -325.15)" fill="#fffffe" fill-rule="evenodd"/>
  <path id="Path_37" data-name="Path 37" d="M337.94,406.613v5.38h2v-5.38h.812v-1.549h-.812V404.9c0-.632.142-.838.761-.838h.051v-1.394c-.116,0-.219-.012-.323-.012-1.7,0-2.5.671-2.5,2.154,0,.077.013.168.013.258h-.748v1.549h.748" transform="translate(-272.289 -325.15)" fill="#fffffe" fill-rule="evenodd"/>
  <path id="Path_38" data-name="Path 38" d="M360.965,417.9a1.641,1.641,0,1,1-1.639-1.716,1.672,1.672,0,0,1,1.639,1.716m2.025-.051a3.659,3.659,0,0,0-6.258-2.516,3.551,3.551,0,0,0-1.058,2.542,3.62,3.62,0,0,0,1.019,2.555,3.425,3.425,0,0,0,2.619,1.109,3.594,3.594,0,0,0,2.633-1.083,3.532,3.532,0,0,0,1.044-2.607" transform="translate(-287.214 -334.517)" fill="#fffffe" fill-rule="evenodd"/>
  <path id="Path_39" data-name="Path 39" d="M398.445,407.446a1.948,1.948,0,0,1-1.825-1.831h4.292v-.047a2.607,2.607,0,1,0-5.207-.159,2.629,2.629,0,0,0,2.613,2.659,2.564,2.564,0,0,0,2.435-1.733h-.434a1.945,1.945,0,0,1-1.759,1.114c-.04,0-.076,0-.116,0" transform="translate(-319.54 -325.236)" fill="#fffffe" fill-rule="evenodd"/>
  <path id="Path_40" data-name="Path 40" d="M427.911,407.446a1.95,1.95,0,0,0,1.826-1.831h-4.293v-.047a2.608,2.608,0,1,1,5.207-.159,2.629,2.629,0,0,1-2.613,2.659,2.564,2.564,0,0,1-2.435-1.733h.434a1.945,1.945,0,0,0,1.758,1.114c.041,0,.076,0,.115,0" transform="translate(-343.555 -325.236)" fill="#fffffe" fill-rule="evenodd"/>
  <path id="Path_41" data-name="Path 41" d="M51.494,246.454h2.274l-3.729-10.611H47.447l-3.714,10.611h2.259l.637-1.91h4.229Zm-4.2-3.865,1.455-4.335,1.455,4.335H47.3Zm15.492-3.714L61.5,243.544l-1.38-4.669H58.27l-1.38,4.654L55.6,238.875H53.525l2.41,7.579H57.8l1.394-4.593,1.395,4.593h1.865l2.41-7.579Zm8.443,0v.894a3.017,3.017,0,0,0-2.471-1.107,4.016,4.016,0,0,0,0,8,3.016,3.016,0,0,0,2.471-1.107v.894h1.956v-7.579ZM69.123,244.8a2.138,2.138,0,1,1,2.107-2.138A2.035,2.035,0,0,1,69.123,244.8Zm7.64-4.623v-1.3H74.808v7.579h1.956v-3.623a1.892,1.892,0,0,1,2.3-1.925v-2.183a2.332,2.332,0,0,0-2.3,1.455Zm8.746-4.335v3.926a2.944,2.944,0,0,0-2.456-1.107,4.014,4.014,0,0,0,0,8,2.943,2.943,0,0,0,2.456-1.107v.894h1.955V235.843H85.51ZM83.418,244.8a2.138,2.138,0,1,1,2.092-2.138A2.038,2.038,0,0,1,83.418,244.8Z" transform="translate(-35.315 -190.448)" fill="#898f95" fill-rule="evenodd"/>
  <path id="Path_42" data-name="Path 42" d="M49.949,180.915c2.259,0,3.85-1.213,3.85-3.2,0-2.168-1.789-2.729-3.472-3.259-1.607-.485-2.016-.834-2.016-1.486,0-.606.515-1.061,1.394-1.061a2.086,2.086,0,0,1,2.031,1.364l1.758-1.015a4.034,4.034,0,0,0-3.79-2.38,3.231,3.231,0,0,0-3.486,3.153c0,2.016,1.577,2.7,3.2,3.168,1.577.454,2.289.758,2.289,1.546,0,.591-.44,1.122-1.7,1.122a2.38,2.38,0,0,1-2.44-1.622l-1.789,1.046A4.1,4.1,0,0,0,49.949,180.915Zm6.836-3.2H62.5a4.545,4.545,0,0,0,.076-.8,3.919,3.919,0,1,0-7.837,0,3.9,3.9,0,0,0,4.154,4,3.836,3.836,0,0,0,3.3-1.622l-1.577-.91a2.1,2.1,0,0,1-1.7.758,1.99,1.99,0,0,1-2.138-1.425Zm-.03-1.516a1.89,1.89,0,0,1,1.985-1.531,1.839,1.839,0,0,1,1.88,1.531Zm8.989-1.773v-1.3H63.788v7.58h1.955V177.08a1.891,1.891,0,0,1,2.3-1.925v-2.183A2.333,2.333,0,0,0,65.743,174.427Zm8.276-1.3-1.849,5.306-1.835-5.306H68.184l2.88,7.58h2.228l2.88-7.58Zm3.911-.909a1.214,1.214,0,0,0,1.213-1.2,1.205,1.205,0,1,0-2.41,0A1.21,1.21,0,0,0,77.931,172.214Zm-.97,8.489h1.955v-7.579H76.96Zm7.2.212a3.882,3.882,0,0,0,3.426-1.97l-1.7-.97a1.869,1.869,0,0,1-1.743,1,2.07,2.07,0,0,1,0-4.138,1.874,1.874,0,0,1,1.728,1.016l1.682-.985a3.816,3.816,0,0,0-3.4-1.955,4,4,0,0,0,0,8Zm5.836-3.2h5.715a4.545,4.545,0,0,0,.075-.8,3.919,3.919,0,1,0-7.836,0,3.9,3.9,0,0,0,4.153,4,3.834,3.834,0,0,0,3.3-1.622l-1.577-.91a2.1,2.1,0,0,1-1.7.758A1.991,1.991,0,0,1,90,177.717Zm-.03-1.516a1.891,1.891,0,0,1,1.986-1.531,1.838,1.838,0,0,1,1.879,1.531Z" transform="translate(-36.968 -137.12)" fill="#898f95" fill-rule="evenodd"/>
  <path id="Path_43" data-name="Path 43" d="M52.326,106.77H44.519v2h2.85v8.61h2.092v-8.61h2.865v-2Zm1.925,4.335v-1.3H52.3v7.579h1.955v-3.623a1.891,1.891,0,0,1,2.3-1.925V109.65A2.334,2.334,0,0,0,54.251,111.105Zm8.292-1.3v4.093c0,1.319-.713,1.88-1.668,1.88a1.411,1.411,0,0,1-1.5-1.561V109.8H57.419v4.654a2.833,2.833,0,0,0,2.864,3.138,2.577,2.577,0,0,0,2.259-1.061v.849H64.5V109.8Zm5.336,2.152c0-.409.394-.622.879-.622a1.283,1.283,0,0,1,1.213.773l1.667-.909a3.192,3.192,0,0,0-2.88-1.607c-1.562,0-2.88.864-2.88,2.41,0,2.668,3.911,2.061,3.911,3.168,0,.44-.425.652-1.046.652a1.443,1.443,0,0,1-1.486-.985l-1.7.955a3.26,3.26,0,0,0,3.183,1.8c1.622,0,3.047-.788,3.047-2.425,0-2.789-3.911-2.092-3.911-3.213ZM77,111.682V109.8H75.291V107.68l-1.955.591V109.8H72.017v1.88h1.319v3.153c0,2.047.925,2.85,3.668,2.547v-1.774c-1.122.06-1.713.045-1.713-.773v-3.153H77Zm2.652,2.714h5.715a4.552,4.552,0,0,0,.075-.8,3.919,3.919,0,1,0-7.837,0,3.9,3.9,0,0,0,4.154,4,3.834,3.834,0,0,0,3.3-1.622l-1.577-.909a2.1,2.1,0,0,1-1.7.757A1.99,1.99,0,0,1,79.656,114.4Zm-.03-1.516a1.89,1.89,0,0,1,1.986-1.531,1.838,1.838,0,0,1,1.879,1.531Zm12.718-6.109V110.7a2.944,2.944,0,0,0-2.456-1.106,4.014,4.014,0,0,0,0,8,2.944,2.944,0,0,0,2.456-1.106v.894H94.3V106.77H92.344Zm-2.092,8.959a2.138,2.138,0,1,1,2.092-2.137A2.038,2.038,0,0,1,90.252,115.729Z" transform="translate(-35.95 -86.219)" fill="#898f95" fill-rule="evenodd"/>
  <path id="Path_44" data-name="Path 44" d="M52.571,40.321H48.614V50.932h2.092V47.445h1.865a3.563,3.563,0,1,0,0-7.124Zm0,5.169H50.706V42.276h1.865a1.608,1.608,0,0,1,0,3.214Zm4.744,5.442H59.27V39.866H57.315V50.932Zm9.353-7.579v.894A3.018,3.018,0,0,0,64.2,43.14a4.015,4.015,0,0,0,0,8,3.018,3.018,0,0,0,2.471-1.106v.894h1.955V43.353ZM64.561,49.28a2.138,2.138,0,1,1,2.107-2.137A2.035,2.035,0,0,1,64.561,49.28Zm10.02-4.047v-1.88H72.868V41.23l-1.955.591v1.531H69.594v1.88h1.319v3.153c0,2.047.925,2.85,3.668,2.547V49.158c-1.122.06-1.713.045-1.713-.773V45.232Zm2.2-2.789a1.213,1.213,0,0,0,1.213-1.2,1.205,1.205,0,1,0-2.41,0A1.21,1.21,0,0,0,76.778,42.443Zm-.97,8.489h1.955V43.353H75.808Zm7.807-7.791A2.577,2.577,0,0,0,81.356,44.2v-.849H79.4v7.579h1.955V46.839c0-1.319.712-1.88,1.667-1.88a1.411,1.411,0,0,1,1.5,1.562v4.411H86.48V46.278A2.833,2.833,0,0,0,83.615,43.14ZM93,43.353v4.093c0,1.319-.712,1.88-1.667,1.88a1.41,1.41,0,0,1-1.5-1.561V43.353H87.874v4.654a2.833,2.833,0,0,0,2.865,3.138A2.577,2.577,0,0,0,93,50.083v.849h1.955V43.353H93Zm11.975-.212a2.6,2.6,0,0,0-2.259,1.091,2.273,2.273,0,0,0-2.062-1.091,2.392,2.392,0,0,0-2.107,1.016v-.8H96.591v7.579h1.955V46.672c0-1.137.591-1.713,1.425-1.713.818,0,1.273.545,1.273,1.44v4.532H103.2V46.672c0-1.137.545-1.713,1.41-1.713.818,0,1.273.545,1.273,1.44v4.532h1.955V46.263a2.82,2.82,0,0,0-2.865-3.122Z" transform="translate(-39.257 -32.193)" fill="#fffffe" fill-rule="evenodd"/>
  <path id="Path_45" data-name="Path 45" d="M42.868,419.344l2.5-2.572a2.373,2.373,0,0,0,.837-1.465.9.9,0,0,0-.952-.951,1.326,1.326,0,0,0-1.223.857l-1.213-.711a2.577,2.577,0,0,1,2.416-1.548,2.287,2.287,0,0,1,2.416,2.3,3.406,3.406,0,0,1-1.2,2.342l-1.433,1.433h2.75v1.391H42.868v-1.077" transform="translate(-34.575 -333.469)" fill="#898f95" fill-rule="evenodd"/>
  <path id="Path_46" data-name="Path 46" d="M76.268,416.759c0-1.548-.513-2.405-1.5-2.405s-1.485.857-1.485,2.405.5,2.394,1.485,2.394S76.268,418.306,76.268,416.759Zm-4.423,0c0-2.259,1.066-3.807,2.928-3.807S77.7,414.5,77.7,416.759s-1.056,3.806-2.928,3.806S71.845,419.017,71.845,416.759Z" transform="translate(-58.016 -333.467)" fill="#898f95" fill-rule="evenodd"/>
  <path id="Path_47" data-name="Path 47" d="M104.46,419.344l2.5-2.572a2.373,2.373,0,0,0,.837-1.465.9.9,0,0,0-.952-.951,1.326,1.326,0,0,0-1.223.857l-1.213-.711a2.576,2.576,0,0,1,2.416-1.548,2.287,2.287,0,0,1,2.416,2.3,3.406,3.406,0,0,1-1.2,2.342l-1.433,1.433h2.75v1.391H104.46v-1.077" transform="translate(-84.312 -333.469)" fill="#898f95" fill-rule="evenodd"/>
  <path id="Path_48" data-name="Path 48" d="M135.038,413.71v7.32H133.6v-5.792l-1.382.387-.354-1.236,1.925-.679h1.253" transform="translate(-106.48 -334.079)" fill="#898f95" fill-rule="evenodd"/>
</svg>
