<svg xmlns="http://www.w3.org/2000/svg" width="126.967" height="125.977" viewBox="0 0 126.967 125.977">
  <path id="Path_82" data-name="Path 82" d="M122.474,26.409a15.38,15.38,0,0,0-21.74,0L91.5,35.633V5.41A3.391,3.391,0,0,0,88.109,2H30.753a3.415,3.415,0,0,0-2.414,1L1.014,30.308A3.427,3.427,0,0,0,0,32.722v91.837a3.437,3.437,0,0,0,3.441,3.414H88.109a3.391,3.391,0,0,0,3.387-3.414V79.087L122.46,48.135a15.363,15.363,0,0,0,.014-21.727ZM59.046,98.33,47.52,101.363l3.033-11.526Zm6.7-3.12L53.673,83.14,97.126,39.686l12.07,12.07ZM27.312,13.652V29.308H11.683ZM84.668,121.145H6.828V36.136H30.753a3.391,3.391,0,0,0,3.387-3.414V8.824H84.668V42.461L46.417,80.725c-.017.017-.024.035-.04.052a3.4,3.4,0,0,0-.918,1.574l-6.033,22.934a3.416,3.416,0,0,0,4.173,4.17l22.934-6.035a3.414,3.414,0,0,0,1.574-.921c.017-.016.022-.03.039-.047L84.668,85.915v35.231Zm32.979-77.838-3.621,3.621-12.07-12.07,3.621-3.621a8.535,8.535,0,1,1,12.07,12.07Z" transform="translate(0 -1.996)" fill="#fff"/>
</svg>
