<svg id="Group_86" data-name="Group 86" xmlns="http://www.w3.org/2000/svg" width="58" height="58" viewBox="0 0 58 58">
  <circle id="Ellipse_6" data-name="Ellipse 6" cx="29" cy="29" r="29" fill="#fff" opacity="0.8"/>
  <g id="Group_46" data-name="Group 46" transform="translate(22.769 13.692)">
    <g id="down-arrow" transform="translate(18.125 0) rotate(90)">
      <g id="_x31_0_34_" transform="translate(0 0)">
        <g id="Group_35" data-name="Group 35">
          <path id="Path_13" data-name="Path 13" d="M30.647,17.743a1.294,1.294,0,0,1-1.836,0l-13.3-14.59-13.3,14.59a1.294,1.294,0,0,1-1.836,0,1.31,1.31,0,0,1,0-1.845L14.53.372A1.28,1.28,0,0,1,15.513,0a1.278,1.278,0,0,1,.983.37L30.648,15.9A1.308,1.308,0,0,1,30.647,17.743Z"/>
        </g>
      </g>
    </g>
  </g>
</svg>
