<svg id="telephone" xmlns="http://www.w3.org/2000/svg" width="21.642" height="21.642" viewBox="0 0 21.642 21.642">
  <g id="Group_5" data-name="Group 5" transform="translate(0)">
    <path id="Path_1" data-name="Path 1" d="M16.459,58.376a1.516,1.516,0,0,0-2.292,0c-.536.531-1.072,1.063-1.6,1.6a.316.316,0,0,1-.441.081c-.347-.189-.716-.342-1.049-.549A16.626,16.626,0,0,1,7.07,55.863a9.5,9.5,0,0,1-1.437-2.3.33.33,0,0,1,.081-.423c.536-.518,1.058-1.049,1.585-1.581a1.522,1.522,0,0,0,0-2.346c-.419-.423-.838-.838-1.256-1.261s-.86-.869-1.3-1.3a1.526,1.526,0,0,0-2.292,0c-.54.531-1.058,1.076-1.608,1.6a2.61,2.61,0,0,0-.82,1.761A7.461,7.461,0,0,0,.6,53.229,19.512,19.512,0,0,0,4.061,59a21.431,21.431,0,0,0,7.1,5.553,10.265,10.265,0,0,0,3.932,1.144,2.881,2.881,0,0,0,2.472-.941c.459-.513.977-.982,1.464-1.473a1.532,1.532,0,0,0,.009-2.333Q17.752,59.658,16.459,58.376Z" transform="translate(-0.006 -44.06)" fill="#fff"/>
    <path id="Path_2" data-name="Path 2" d="M242.736,102.4l1.662-.284A7.459,7.459,0,0,0,238.088,96l-.234,1.671a5.765,5.765,0,0,1,4.882,4.733Z" transform="translate(-227.142 -91.677)" fill="#fff"/>
    <path id="Path_3" data-name="Path 3" d="M250.014,3.5A12.254,12.254,0,0,0,242.988,0l-.234,1.671a10.692,10.692,0,0,1,9.048,8.768l1.662-.284A12.343,12.343,0,0,0,250.014,3.5Z" transform="translate(-231.822)" fill="#fff"/>
  </g>
</svg>
