<svg xmlns="http://www.w3.org/2000/svg" width="36.403" height="36.403" viewBox="0 0 36.403 36.403">
  <g id="twitter" transform="translate(-0.001 0)">
    <circle id="Ellipse_8" data-name="Ellipse 8" cx="18.202" cy="18.202" r="18.202" transform="translate(0.001 0)" fill="#55acee"/>
    <g id="Group_127" data-name="Group 127" transform="translate(8.146 11.041)">
      <path id="Path_57" data-name="Path 57" d="M46.309,36.068a8.68,8.68,0,0,1-2.5.684,4.363,4.363,0,0,0,1.913-2.407A8.71,8.71,0,0,1,42.961,35.4a4.354,4.354,0,0,0-7.414,3.969,12.35,12.35,0,0,1-8.968-4.546,4.355,4.355,0,0,0,1.346,5.809,4.32,4.32,0,0,1-1.97-.545c0,.018,0,.037,0,.055a4.353,4.353,0,0,0,3.49,4.266,4.368,4.368,0,0,1-1.965.075,4.355,4.355,0,0,0,4.064,3.021,8.783,8.783,0,0,1-6.441,1.8A12.373,12.373,0,0,0,44.151,38.883c0-.189,0-.376-.013-.563a8.822,8.822,0,0,0,2.171-2.252Z" transform="translate(-25.103 -34.028)" fill="#f1f2f2"/>
    </g>
  </g>
</svg>
