<svg xmlns="http://www.w3.org/2000/svg" width="99.187" height="16.134" viewBox="0 0 99.187 16.134">
  <g id="Group_102" data-name="Group 102" transform="translate(-17 -1942)">
    <g id="star" transform="translate(17 1942)">
      <path id="Path_24" data-name="Path 24" d="M27.191,16.992a.854.854,0,0,0-.737-.589l-4.648-.422-1.838-4.3a.856.856,0,0,0-1.574,0l-1.838,4.3-4.649.422a.856.856,0,0,0-.485,1.5l3.514,3.081L13.9,25.545a.857.857,0,0,0,.333.884.848.848,0,0,0,.94.042l4.008-2.4,4.008,2.4a.856.856,0,0,0,1.274-.925l-1.036-4.563L26.941,17.9a.856.856,0,0,0,.25-.91Zm0,0" transform="translate(-10.764 -10.809)" fill="#eee"/>
      <path id="Path_25" data-name="Path 25" d="M3.769,16.627A.9.9,0,0,1,2.9,15.533l1.083-4.77L.306,7.541A.9.9,0,0,1,.814,5.974l4.861-.441L7.6,1.037a.895.895,0,0,1,1.646,0l1.921,4.5,4.86.441A.9.9,0,0,1,16.53,7.54l-3.672,3.221,1.083,4.77a.895.895,0,0,1-1.331.967l-4.191-2.5L4.227,16.5a.889.889,0,0,1-.458.127Zm4.649-3.712a.9.9,0,0,1,.459.127l3.955,2.366L11.81,10.9a.894.894,0,0,1,.283-.872L15.562,6.99l-4.589-.417a.891.891,0,0,1-.743-.542L8.418,1.788,6.6,6.033a.89.89,0,0,1-.743.54L1.274,6.99l3.468,3.042a.894.894,0,0,1,.283.873L4,15.408l3.955-2.366a.9.9,0,0,1,.459-.127ZM5.637,5.621h0Zm5.562,0h0Zm0,0" transform="translate(0 -0.493)" fill="#eee"/>
    </g>
    <g id="star-2" data-name="star" transform="translate(37.588 1942)">
      <path id="Path_24-2" data-name="Path 24" d="M27.191,16.992a.854.854,0,0,0-.737-.589l-4.648-.422-1.838-4.3a.856.856,0,0,0-1.574,0l-1.838,4.3-4.649.422a.856.856,0,0,0-.485,1.5l3.514,3.081L13.9,25.545a.857.857,0,0,0,.333.884.848.848,0,0,0,.94.042l4.008-2.4,4.008,2.4a.856.856,0,0,0,1.274-.925l-1.036-4.563L26.941,17.9a.856.856,0,0,0,.25-.91Zm0,0" transform="translate(-10.764 -10.809)" fill="#eee"/>
      <path id="Path_25-2" data-name="Path 25" d="M3.769,16.627A.9.9,0,0,1,2.9,15.533l1.083-4.77L.306,7.541A.9.9,0,0,1,.814,5.974l4.861-.441L7.6,1.037a.895.895,0,0,1,1.646,0l1.921,4.5,4.86.441A.9.9,0,0,1,16.53,7.54l-3.672,3.221,1.083,4.77a.895.895,0,0,1-1.331.967l-4.191-2.5L4.227,16.5a.889.889,0,0,1-.458.127Zm4.649-3.712a.9.9,0,0,1,.459.127l3.955,2.366L11.81,10.9a.894.894,0,0,1,.283-.872L15.562,6.99l-4.589-.417a.891.891,0,0,1-.743-.542L8.418,1.788,6.6,6.033a.89.89,0,0,1-.743.54L1.274,6.99l3.468,3.042a.894.894,0,0,1,.283.873L4,15.408l3.955-2.366a.9.9,0,0,1,.459-.127ZM5.637,5.621h0Zm5.562,0h0Zm0,0" transform="translate(0 -0.493)" fill="#eee"/>
    </g>
    <g id="star-3" data-name="star" transform="translate(58.176 1942)">
      <path id="Path_24-3" data-name="Path 24" d="M27.191,16.992a.854.854,0,0,0-.737-.589l-4.648-.422-1.838-4.3a.856.856,0,0,0-1.574,0l-1.838,4.3-4.649.422a.856.856,0,0,0-.485,1.5l3.514,3.081L13.9,25.545a.857.857,0,0,0,.333.884.848.848,0,0,0,.94.042l4.008-2.4,4.008,2.4a.856.856,0,0,0,1.274-.925l-1.036-4.563L26.941,17.9a.856.856,0,0,0,.25-.91Zm0,0" transform="translate(-10.764 -10.809)" fill="#eee"/>
      <path id="Path_25-3" data-name="Path 25" d="M3.769,16.627A.9.9,0,0,1,2.9,15.533l1.083-4.77L.306,7.541A.9.9,0,0,1,.814,5.974l4.861-.441L7.6,1.037a.895.895,0,0,1,1.646,0l1.921,4.5,4.86.441A.9.9,0,0,1,16.53,7.54l-3.672,3.221,1.083,4.77a.895.895,0,0,1-1.331.967l-4.191-2.5L4.227,16.5a.889.889,0,0,1-.458.127Zm4.649-3.712a.9.9,0,0,1,.459.127l3.955,2.366L11.81,10.9a.894.894,0,0,1,.283-.872L15.562,6.99l-4.589-.417a.891.891,0,0,1-.743-.542L8.418,1.788,6.6,6.033a.89.89,0,0,1-.743.54L1.274,6.99l3.468,3.042a.894.894,0,0,1,.283.873L4,15.408l3.955-2.366a.9.9,0,0,1,.459-.127ZM5.637,5.621h0Zm5.562,0h0Zm0,0" transform="translate(0 -0.493)" fill="#eee"/>
    </g>
    <g id="star-4" data-name="star" transform="translate(78.764 1942)">
      <path id="Path_24-4" data-name="Path 24" d="M27.191,16.992a.854.854,0,0,0-.737-.589l-4.648-.422-1.838-4.3a.856.856,0,0,0-1.574,0l-1.838,4.3-4.649.422a.856.856,0,0,0-.485,1.5l3.514,3.081L13.9,25.545a.857.857,0,0,0,.333.884.848.848,0,0,0,.94.042l4.008-2.4,4.008,2.4a.856.856,0,0,0,1.274-.925l-1.036-4.563L26.941,17.9a.856.856,0,0,0,.25-.91Zm0,0" transform="translate(-10.764 -10.809)" fill="#eee"/>
      <path id="Path_25-4" data-name="Path 25" d="M3.769,16.627A.9.9,0,0,1,2.9,15.533l1.083-4.77L.306,7.541A.9.9,0,0,1,.814,5.974l4.861-.441L7.6,1.037a.895.895,0,0,1,1.646,0l1.921,4.5,4.86.441A.9.9,0,0,1,16.53,7.54l-3.672,3.221,1.083,4.77a.895.895,0,0,1-1.331.967l-4.191-2.5L4.227,16.5a.889.889,0,0,1-.458.127Zm4.649-3.712a.9.9,0,0,1,.459.127l3.955,2.366L11.81,10.9a.894.894,0,0,1,.283-.872L15.562,6.99l-4.589-.417a.891.891,0,0,1-.743-.542L8.418,1.788,6.6,6.033a.89.89,0,0,1-.743.54L1.274,6.99l3.468,3.042a.894.894,0,0,1,.283.873L4,15.408l3.955-2.366a.9.9,0,0,1,.459-.127ZM5.637,5.621h0Zm5.562,0h0Zm0,0" transform="translate(0 -0.493)" fill="#eee"/>
    </g>
    <g id="star-5" data-name="star" transform="translate(99.352 1942)">
      <path id="Path_24-5" data-name="Path 24" d="M27.191,16.992a.854.854,0,0,0-.737-.589l-4.648-.422-1.838-4.3a.856.856,0,0,0-1.574,0l-1.838,4.3-4.649.422a.856.856,0,0,0-.485,1.5l3.514,3.081L13.9,25.545a.857.857,0,0,0,.333.884.848.848,0,0,0,.94.042l4.008-2.4,4.008,2.4a.856.856,0,0,0,1.274-.925l-1.036-4.563L26.941,17.9a.856.856,0,0,0,.25-.91Zm0,0" transform="translate(-10.764 -10.809)" fill="#eee"/>
      <path id="Path_25-5" data-name="Path 25" d="M3.769,16.627A.9.9,0,0,1,2.9,15.533l1.083-4.77L.306,7.541A.9.9,0,0,1,.814,5.974l4.861-.441L7.6,1.037a.895.895,0,0,1,1.646,0l1.921,4.5,4.86.441A.9.9,0,0,1,16.53,7.54l-3.672,3.221,1.083,4.77a.895.895,0,0,1-1.331.967l-4.191-2.5L4.227,16.5a.889.889,0,0,1-.458.127Zm4.649-3.712a.9.9,0,0,1,.459.127l3.955,2.366L11.81,10.9a.894.894,0,0,1,.283-.872L15.562,6.99l-4.589-.417a.891.891,0,0,1-.743-.542L8.418,1.788,6.6,6.033a.89.89,0,0,1-.743.54L1.274,6.99l3.468,3.042a.894.894,0,0,1,.283.873L4,15.408l3.955-2.366a.9.9,0,0,1,.459-.127ZM5.637,5.621h0Zm5.562,0h0Zm0,0" transform="translate(0 -0.493)" fill="#eee"/>
    </g>
  </g>
</svg>
