<svg width="18" height="18" viewBox="0 0 18 18" fill="none" xmlns="http://www.w3.org/2000/svg">
<path d="M10.0994 8.99997L14.772 4.32726C15.0761 4.02332 15.0761 3.5319 14.772 3.22796C14.468 2.92401 13.9766 2.92401 13.6727 3.22796L8.99994 7.90066L4.32737 3.22796C4.02329 2.92401 3.532 2.92401 3.22806 3.22796C2.92398 3.5319 2.92398 4.02332 3.22806 4.32726L7.90063 8.99997L3.22806 13.6727C2.92398 13.9766 2.92398 14.468 3.22806 14.772C3.37953 14.9236 3.5787 14.9998 3.77772 14.9998C3.97674 14.9998 4.17576 14.9236 4.32737 14.772L8.99994 10.0993L13.6727 14.772C13.8243 14.9236 14.0233 14.9998 14.2223 14.9998C14.4213 14.9998 14.6204 14.9236 14.772 14.772C15.0761 14.468 15.0761 13.9766 14.772 13.6727L10.0994 8.99997Z" fill="#3F3D56"/>
</svg>
